<?xml version="1.0" encoding="utf-8"?>
<!-- Generator: Adobe Illustrator 20.1.0, SVG Export Plug-In . SVG Version: 6.00 Build 0)  -->
<svg version="1.1" id="レイヤー_1" xmlns="http://www.w3.org/2000/svg" xmlns:xlink="http://www.w3.org/1999/xlink" x="0px"
	 y="0px" viewBox="0 0 150 40.3" style="enable-background:new 0 0 150 40.3;" xml:space="preserve">
<g>
	<path d="M24.7,30.9c0-1.3,0-2.7,0-4.1c-0.1-1.4-0.1-2.7-0.2-4.1c-0.1-1.4-0.2-2.7-0.2-4.1c-0.1-1.4-0.1-2.7,0-4.1
		c-0.2,0.1-0.5,0.1-1,0.2c-0.4,0.1-1,0.2-1.5,0.4c-0.6,0.1-1.2,0.3-1.8,0.4c-0.6,0.1-1.2,0.3-1.8,0.4c-0.6,0.1-1.1,0.3-1.5,0.4
		c-0.4,0.1-0.8,0.2-1,0.2c-0.3,0.1-0.5,0-0.8-0.1c-0.3-0.1-0.5-0.3-0.7-0.4l1-1c3.1-0.3,6.1-0.9,9.1-1.8s5.9-2,8.7-3.3h1.5
		c0.1,0.2,0.1,0.3,0,0.5s-0.2,0.3-0.4,0.5c-0.2,0.1-0.3,0.3-0.5,0.4l-0.2,0.1l-7.1,2.5c0,0,0,0.2,0,0.7c0,0.5,0,1,0,1.7s0,1.3,0,2
		c0,0.7,0,1.3,0,1.7c0,0.2,0,0.5,0,1s0.1,1.1,0.1,1.8c0,0.7,0.1,1.4,0.1,2.2c0,0.8,0.1,1.5,0.1,2.2c0,0.7,0.1,1.3,0.1,1.8
		c0,0.5,0,0.9,0.1,1c0,0.3-0.1,0.6-0.3,0.9c-0.2,0.3-0.4,0.5-0.6,0.6s-0.5,0.1-0.7,0C24.9,31.7,24.8,31.4,24.7,30.9z"/>
	<path d="M37.2,31.5c-0.5-0.4-0.8-0.8-1-1.5c-0.2-0.6-0.3-1.2-0.4-1.8c0-0.6,0.1-1,0.2-1.3c0.2-0.3,0.4-0.3,0.6,0
		c0,1.1,0.2,1.9,0.6,2.4c0.4,0.5,1,0.9,1.6,1s1.3,0.1,2-0.1c0.7-0.2,1.3-0.6,1.8-1c0.5-0.5,0.8-1,1-1.7c0.2-0.7,0.1-1.4-0.3-2.1
		c-0.5-0.6-1.1-1.1-1.7-1.7c-0.6-0.5-1.3-1.1-1.9-1.6s-1.3-1.1-1.9-1.6c-0.6-0.6-1.1-1.1-1.6-1.8c0,0-0.1-0.1-0.1-0.2
		c0-0.1,0-0.2,0.1-0.2c0.1-0.2,0.3-0.4,0.6-0.8c0.3-0.4,0.5-0.8,0.9-1.3c0.3-0.5,0.7-1,1.1-1.5c0.4-0.5,0.7-1,1.1-1.5
		c0.3-0.5,0.6-0.9,0.9-1.3c0.3-0.4,0.5-0.6,0.6-0.8c0.3-0.4,0.6-0.6,0.8-0.6c0.3-0.1,0.7,0,1.2,0.1c0,0.1-0.1,0.2-0.2,0.5
		c-0.1,0.3-0.2,0.4-0.3,0.5c-0.2,0.2-0.4,0.6-0.9,1.2c-0.4,0.6-0.9,1.2-1.4,1.8c-0.5,0.7-0.9,1.3-1.4,1.8c-0.4,0.6-0.7,1-0.9,1.2
		c-0.2,0.2-0.1,0.5,0.2,0.8c0.3,0.3,0.7,0.7,1.2,1.1c0.5,0.4,1.1,0.8,1.7,1.3c0.6,0.5,1.3,1,1.8,1.5c0.6,0.5,1.1,1.1,1.5,1.8
		c0.4,0.6,0.6,1.3,0.6,2c0,0.7-0.2,1.5-0.6,2.2c-0.4,0.8-1.2,1.6-2.4,2.5c-0.4,0.3-0.7,0.5-1.2,0.7c-0.4,0.2-0.9,0.3-1.3,0.4
		c-0.4,0.1-0.9,0.1-1.3,0C38,31.9,37.6,31.8,37.2,31.5z"/>
	<path d="M47.3,30.4c0-0.1-0.1-0.2-0.1-0.4s-0.1-0.4-0.2-0.6c0-0.2-0.1-0.4-0.1-0.6c0-0.2-0.1-0.3-0.1-0.4V17.2
		c0-0.2,0.1-0.3,0.2-0.4c0.1-0.1,0.3-0.1,0.5-0.1c0.2,0,0.3,0,0.5,0c0.2,0,0.3,0,0.3,0.1c0,0.3,0,0.6,0,1.2s0,1.1,0,1.8
		c0,0.7,0,1.4,0,2.1c0,0.7,0,1.5,0,2.1v1.8c0,0.5,0,0.9,0,1.2c0,1.1,0.2,1.9,0.5,2.3c0.3,0.4,0.6,0.6,1,0.6s0.8-0.2,1.2-0.6
		c0.4-0.4,0.8-0.9,1.2-1.4s0.7-1.1,0.9-1.7c0.2-0.6,0.4-1.1,0.4-1.6v-7.6h2.1c0,0.4-0.1,1-0.1,1.8c-0.1,0.7-0.1,1.5-0.1,2.3
		c0,0.8,0,1.7,0,2.6c0,0.9,0.1,1.7,0.3,2.5c0.1,0.8,0.4,1.4,0.6,2c0.3,0.6,0.6,1,1.1,1.2s1,0.3,1.6,0.1c0.6-0.2,1.4-0.6,2.2-1.3
		c0.2,0.5,0.1,1-0.2,1.5s-0.7,0.9-1.2,1.2s-1.1,0.6-1.6,0.8s-1.1,0.2-1.5,0.1c-0.1,0-0.2-0.1-0.3-0.2S56,31,56,30.9
		c-0.1-0.1-0.2-0.4-0.4-0.8s-0.4-0.8-0.6-1.2c-0.2-0.4-0.4-0.8-0.6-1.2C54.2,27.3,54,27,54,26.9c-0.1,0.2-0.3,0.5-0.6,1
		s-0.6,0.9-1,1.4s-0.8,1-1.2,1.4s-0.9,0.8-1.3,0.9s-0.9,0.2-1.3,0.1S47.7,31.1,47.3,30.4z"/>
	<path d="M62.8,31.7c-0.1-0.3,0-0.6,0.2-0.9s0.6-0.7,1-1s0.9-0.7,1.5-1s1.1-0.7,1.6-1c0.5-0.3,0.9-0.6,1.3-1
		c0.4-0.3,0.6-0.6,0.8-0.9c0.3-0.6,0.5-1.3,0.7-2.1c0.2-0.8,0.3-1.5,0.4-2.3s0.1-1.4,0-2c-0.1-0.6-0.3-1-0.6-1.2
		c-0.3-0.2-0.7-0.2-1.2,0.1c-0.5,0.3-1.2,0.9-1.9,1.8c-0.2,0.3-0.5,0.8-0.8,1.5c-0.3,0.7-0.6,1.5-0.9,2.3c-0.3,0.8-0.7,1.7-1,2.5
		s-0.7,1.6-1,2.2s-0.7,1-1,1.2s-0.6,0-0.8-0.5c0-0.1,0-0.4,0-0.7c0-0.3,0-0.7,0-1.1s0-0.7,0-1.1c0-0.3,0-0.6,0-0.7
		c-0.1-1.3-0.1-2.6-0.2-3.9c-0.1-1.3-0.2-2.5-0.2-3.8c-0.1-1.2-0.2-2.5-0.3-3.8c-0.1-1.2-0.2-2.5-0.3-3.8c0-0.6,0-0.9,0.1-1.1
		c0.1-0.2,0.2-0.3,0.3-0.2c0.1,0.1,0.3,0.2,0.5,0.5s0.4,0.6,0.5,1.1s0.3,0.9,0.4,1.3c0.1,0.5,0.2,1,0.2,1.4c0,0.2,0,0.6,0,1.1
		c0,0.5,0.1,1.1,0.1,1.7c0,0.6,0.1,1.3,0.1,2s0.1,1.4,0.1,2c0,0.6,0.1,1.2,0.1,1.7c0,0.5,0.1,0.9,0.1,1.1c0.4-0.3,0.8-0.7,1.1-1.2
		c0.3-0.5,0.6-0.9,0.9-1.4c0.3-0.5,0.6-0.9,0.9-1.4c0.3-0.4,0.7-0.8,1.2-1.1c1.2-0.8,2.3-1.2,3.1-1.3c0.8-0.1,1.5,0.1,1.9,0.6
		s0.7,1.1,0.8,1.9s0,1.7-0.2,2.7c-0.2,1-0.6,2.1-1.1,3.1c-0.5,1.1-1.2,2.1-1.9,3s-1.6,1.8-2.6,2.5s-2,1.2-3.2,1.4L63,32
		C62.9,31.8,62.9,31.7,62.8,31.7z"/>
	<path d="M74.2,31.5c-0.4-0.8-0.6-1.7-0.6-2.5c0-0.8,0-1.7,0.1-2.6c0-0.3,0.1-0.7,0.1-1.2s0.2-1.2,0.3-1.8c0.1-0.7,0.2-1.4,0.3-2.1
		c0.1-0.7,0.2-1.4,0.3-2.1c0.1-0.7,0.2-1.3,0.3-1.8c0.1-0.5,0.2-0.9,0.2-1.2c0.2-0.8,0.3-1.5,0.5-2.1c0.2-0.6,0.4-1,0.8-1.3
		c0.3-0.3,0.7-0.5,1.3-0.5c0.5,0,1.2,0.1,2,0.4c0.1,0,0.2,0.1,0.3,0.2c0.1,0.1,0.2,0.2,0.2,0.3c0,0.3,0.1,0.6,0.2,1.2
		s0.2,1.1,0.4,1.8s0.3,1.4,0.4,2.1s0.3,1.4,0.4,2.1s0.3,1.3,0.4,1.8s0.2,0.9,0.2,1.2c0.3,1.4,0.7,2.3,1.1,2.9
		c0.4,0.5,0.9,0.8,1.4,0.8c0.5,0,1-0.1,1.5-0.5c0.5-0.3,1-0.7,1.5-1.1c0.5-0.4,1-0.7,1.4-1c0.4-0.3,0.8-0.3,1.2-0.1
		c0,0.4-0.1,0.7-0.3,1.1c-0.2,0.4-0.4,0.7-0.6,1c-0.2,0.3-0.5,0.6-0.8,0.8c-0.3,0.3-0.6,0.5-0.8,0.6c-1.1,0.7-2,1.1-2.7,1.1
		c-0.7,0-1.4-0.1-1.9-0.5c-0.5-0.4-0.9-0.9-1.2-1.5s-0.6-1.3-0.8-2s-0.5-1.3-0.7-1.8c-0.2-0.5-0.5-0.8-0.8-1
		c-0.1,0.3-0.2,0.7-0.4,1.3c-0.2,0.6-0.4,1.3-0.6,2c-0.2,0.7-0.4,1.4-0.6,2c-0.2,0.6-0.3,1.1-0.4,1.3c0,0.1-0.1,0.3-0.2,0.6
		c-0.1,0.3-0.3,0.6-0.5,0.9s-0.4,0.6-0.7,0.9s-0.5,0.5-0.7,0.7c-0.3,0.2-0.5,0.2-0.8,0.2S74.4,31.9,74.2,31.5z M75.7,22.8
		c0,0.2-0.1,0.7-0.1,1.3c0,0.6,0,1.3,0,2s0,1.4,0,2c0,0.6,0,1.1,0.1,1.3c0.7-1,1.3-2.2,1.8-3.6c0.5-1.4,1-2.8,1.2-4.3
		c0.3-1.5,0.4-2.9,0.3-4.4c-0.1-1.5-0.4-2.8-0.9-4c-0.3,0.6-0.6,1.4-0.9,2.3c-0.3,0.9-0.5,1.9-0.8,2.8c-0.2,0.9-0.4,1.8-0.5,2.7
		C75.9,21.7,75.8,22.4,75.7,22.8z"/>
	<path d="M90.1,31.5c-0.5-0.4-0.8-0.8-1-1.5s-0.3-1.2-0.4-1.8s0.1-1,0.2-1.3c0.2-0.3,0.4-0.3,0.6,0c0,1.1,0.2,1.9,0.6,2.4
		c0.4,0.5,1,0.9,1.6,1s1.3,0.1,2-0.1s1.3-0.6,1.8-1c0.5-0.5,0.8-1,1-1.7c0.2-0.7,0.1-1.4-0.3-2.1c-0.5-0.6-1.1-1.1-1.7-1.7
		c-0.6-0.5-1.3-1.1-1.9-1.6s-1.3-1.1-1.9-1.6s-1.1-1.1-1.6-1.8c0,0-0.1-0.1-0.1-0.2c0-0.1,0-0.2,0.1-0.2c0.1-0.2,0.3-0.4,0.6-0.8
		c0.3-0.4,0.5-0.8,0.9-1.3s0.7-1,1.1-1.5c0.4-0.5,0.7-1,1.1-1.5s0.6-0.9,0.9-1.3c0.3-0.4,0.5-0.6,0.6-0.8c0.3-0.4,0.6-0.6,0.8-0.6
		s0.7,0,1.2,0.1c0,0.1-0.1,0.2-0.2,0.5s-0.2,0.4-0.3,0.5c-0.2,0.2-0.4,0.6-0.9,1.2c-0.4,0.6-0.9,1.2-1.4,1.8
		c-0.5,0.7-0.9,1.3-1.4,1.8c-0.4,0.6-0.7,1-0.9,1.2C91,18,91,18.2,91.3,18.5c0.3,0.3,0.7,0.7,1.2,1.1c0.5,0.4,1.1,0.8,1.7,1.3
		c0.6,0.5,1.3,1,1.8,1.5c0.6,0.5,1.1,1.1,1.5,1.8c0.4,0.6,0.6,1.3,0.6,2c0,0.7-0.2,1.5-0.6,2.2c-0.4,0.8-1.2,1.6-2.4,2.5
		c-0.4,0.3-0.7,0.5-1.2,0.7S93.1,32,92.7,32c-0.4,0.1-0.9,0.1-1.3,0C90.9,31.9,90.5,31.8,90.1,31.5z"/>
	<path d="M100,31.5c-0.4-0.8-0.6-1.7-0.6-2.5c0-0.8,0-1.7,0.1-2.6c0-0.3,0.1-0.7,0.1-1.2s0.2-1.2,0.3-1.8c0.1-0.7,0.2-1.4,0.3-2.1
		c0.1-0.7,0.2-1.4,0.3-2.1c0.1-0.7,0.2-1.3,0.3-1.8c0.1-0.5,0.2-0.9,0.2-1.2c0.2-0.8,0.3-1.5,0.5-2.1c0.2-0.6,0.4-1,0.8-1.3
		c0.3-0.3,0.7-0.5,1.3-0.5c0.5,0,1.2,0.1,2,0.4c0.1,0,0.2,0.1,0.3,0.2c0.1,0.1,0.2,0.2,0.2,0.3c0,0.3,0.1,0.6,0.2,1.2
		s0.2,1.1,0.4,1.8s0.3,1.4,0.4,2.1s0.3,1.4,0.4,2.1s0.3,1.3,0.4,1.8s0.2,0.9,0.2,1.2c0.3,1.4,0.7,2.3,1.1,2.9
		c0.4,0.5,0.9,0.8,1.4,0.8c0.5,0,1-0.1,1.5-0.5c0.5-0.3,1-0.7,1.5-1.1c0.5-0.4,1-0.7,1.4-1c0.4-0.3,0.8-0.3,1.2-0.1
		c0,0.4-0.1,0.7-0.3,1.1c-0.2,0.4-0.4,0.7-0.6,1c-0.2,0.3-0.5,0.6-0.8,0.8c-0.3,0.3-0.6,0.5-0.8,0.6c-1.1,0.7-2,1.1-2.7,1.1
		c-0.7,0-1.4-0.1-1.9-0.5c-0.5-0.4-0.9-0.9-1.2-1.5s-0.6-1.3-0.8-2s-0.5-1.3-0.7-1.8c-0.2-0.5-0.5-0.8-0.8-1
		c-0.1,0.3-0.2,0.7-0.4,1.3c-0.2,0.6-0.4,1.3-0.6,2c-0.2,0.7-0.4,1.4-0.6,2c-0.2,0.6-0.3,1.1-0.4,1.3c0,0.1-0.1,0.3-0.2,0.6
		c-0.1,0.3-0.3,0.6-0.5,0.9s-0.4,0.6-0.7,0.9s-0.5,0.5-0.7,0.7c-0.3,0.2-0.5,0.2-0.8,0.2S100.2,31.9,100,31.5z M101.5,22.8
		c0,0.2-0.1,0.7-0.1,1.3c0,0.6,0,1.3,0,2s0,1.4,0,2c0,0.6,0,1.1,0.1,1.3c0.7-1,1.3-2.2,1.8-3.6c0.5-1.4,1-2.8,1.2-4.3
		c0.3-1.5,0.4-2.9,0.3-4.4c-0.1-1.5-0.4-2.8-0.9-4c-0.3,0.6-0.6,1.4-0.9,2.3c-0.3,0.9-0.5,1.9-0.8,2.8c-0.2,0.9-0.4,1.8-0.5,2.7
		C101.7,21.7,101.6,22.4,101.5,22.8z"/>
	<path d="M115.8,31.5c-0.2-0.3-0.2-0.7-0.1-1.1s0.2-0.7,0.5-1.1c0.2-0.3,0.5-0.6,0.8-0.9c0.3-0.2,0.7-0.4,1-0.4c0.4,0,0.7,0,1,0.2
		s0.6,0.6,0.8,1.1c0.1,0.3,0.2,0.7,0,1s-0.3,0.6-0.5,0.8s-0.6,0.4-0.9,0.6c-0.4,0.2-0.7,0.3-1,0.3s-0.7,0-1-0.1
		C116.2,32,115.9,31.8,115.8,31.5z"/>
	<path d="M125.5,31.5c-1.1-0.4-2-1-2.5-1.8s-1-1.5-1.2-2.3s-0.3-1.6-0.2-2.3c0.1-0.7,0.2-1.3,0.4-1.8c0.2-0.5,0.5-0.7,0.7-0.8
		c0.3,0,0.5,0.2,0.7,0.8c-0.2,1.2-0.2,2.3,0,3.2s0.6,1.7,1.1,2.3s1.1,1,1.8,1.3s1.4,0.4,2.2,0.4s1.5-0.1,2.2-0.4s1.3-0.7,1.8-1.2
		c0.5-0.5,0.9-1.2,1.1-1.9c0.2-0.8,0.3-1.7,0.1-2.7c-0.1-0.4-0.4-1-0.8-1.7c-0.4-0.7-0.9-1.4-1.4-2.1c-0.5-0.7-1.1-1.5-1.7-2.3
		c-0.6-0.8-1-1.5-1.4-2.2c-0.4-0.7-0.6-1.4-0.7-2c-0.1-0.6,0-1.1,0.4-1.5c0.3-0.3,0.8-0.6,1.4-1.2c0.6-0.5,1.3-1,2-1.5
		c0.7-0.5,1.5-1,2.2-1.3s1.4-0.6,2-0.6c0.4,0,0.7,0.1,0.7,0.2c0,0.1-0.1,0.3-0.3,0.5c-0.2,0.2-0.6,0.5-1,0.8c-0.4,0.3-0.9,0.6-1.4,1
		c-0.5,0.4-1,0.7-1.5,1.1c-0.5,0.4-1,0.8-1.3,1.2c-0.4,0.4-0.6,0.8-0.8,1.2s-0.2,0.7,0,1.1c0.7,1,1.4,2,2.1,3c0.7,1,1.3,2,1.9,3
		c0.5,1,0.9,2,1.2,2.9c0.3,0.9,0.3,1.9,0.1,2.7c-0.2,0.9-0.7,1.7-1.4,2.5c-0.8,0.8-1.9,1.5-3.3,2.1c-0.9,0.4-1.7,0.5-2.5,0.5
		C127.2,32,126.4,31.8,125.5,31.5z"/>
</g>
</svg>
